# xmcd
#
# Track frame offsets:
#	150
#	22666
#	43854
#	61876
#	80334
#	102807
#	126427
#	145092
#	163652
#	182929
#	200601
#	223077
#
# Disc length: 3212 seconds
#
# Revision: 0
# Processed by: cddbd v1.5.2PL0 Copyright (c) Steve Scherf et al.
# Submitted via: EZCDAudioConverter 8.0.2.1
#
DISCID=a80c8a0c
DTITLE=Various Artist - The Bets Of Chinese Melodies 3. Thên Đường Không Tìm Thấy
DYEAR=2004
DGENRE=World Pop
TTITLE0=Tú Quyên - Tình yêu ngàn dặm
TTITLE1=Huy Vũ - Thên Đường Không Tìm Thấy
TTITLE2=Hạ Vy - Đường chiều rộn vui
TTITLE3=Tú Quyên - Yêu một người
TTITLE4=Lưu Minh Thắng - Giọt lẹ chia ly
TTITLE5=Huy Vũ - Tìm dấu yêu xưa
TTITLE6=Hạ Vy - Tình mãi bay xa
TTITLE7=Lưu Minh Thắng - Những buổi chiều vàng
TTITLE8=Tú Quyên - Một kiếp em vẫn chờ
TTITLE9=Huy Vũ - Sống trong cô đơn
TTITLE10=Soundtrack - Tình yêu ngàn dặm
TTITLE11=Soundtrack - Đường chiều rộn vui
EXTD=
EXTT0=
EXTT1=
EXTT2=
EXTT3=
EXTT4=
EXTT5=
EXTT6=
EXTT7=
EXTT8=
EXTT9=
EXTT10=
EXTT11=
PLAYORDER=
